<svg id="Layer_1" data-name="Layer 1" xmlns="http://www.w3.org/2000/svg" viewBox="0 0 451.32 187.8"><defs><style>.cls-1,.cls-2{fill:#635bff;}.cls-1{fill-rule:evenodd;}</style></defs><path class="cls-1" d="M451.32,97c0-32.09-15.54-57.41-45.26-57.41s-47.89,25.32-47.89,57.16c0,37.74,21.32,56.79,51.91,56.79,14.91,0,26.2-3.38,34.72-8.14V120.35c-8.52,4.26-18.3,6.9-30.71,6.9-12.16,0-22.94-4.26-24.32-19.06h61.3C451.07,106.56,451.32,100,451.32,97ZM389.39,85.12c0-14.16,8.65-20.05,16.55-20.05,7.65,0,15.8,5.89,15.8,20.05Z"/><path class="cls-1" d="M309.78,39.62a35.44,35.44,0,0,0-24.57,9.77l-1.63-7.77H256V187.8l31.34-6.64.13-35.48c4.51,3.26,11.15,7.89,22.19,7.89,22.44,0,42.87-18,42.87-57.79C352.41,59.42,331.72,39.62,309.78,39.62ZM302.26,126c-7.4,0-11.78-2.63-14.79-5.89l-.13-46.51c3.26-3.64,7.77-6.14,14.92-6.14,11.41,0,19.31,12.78,19.31,29.21C321.57,113.46,313.79,126,302.26,126Z"/><polygon class="cls-1" points="212.87 32.22 244.34 25.45 244.34 0 212.87 6.64 212.87 32.22"/><rect class="cls-2" x="212.87" y="41.75" width="31.47" height="109.7"/><path class="cls-1" d="M179.15,51l-2-9.27H150.06V151.44h31.35V77.1c7.39-9.65,19.93-7.9,23.82-6.52V41.75C201.21,40.24,186.55,37.48,179.15,51Z"/><path class="cls-1" d="M116.47,14.54,85.88,21.06l-.13,100.42c0,18.56,13.92,32.22,32.47,32.22,10.28,0,17.8-1.88,21.94-4.14V124.11c-4,1.63-23.82,7.4-23.82-11.15V68.45h23.82V41.75H116.34Z"/><path class="cls-1" d="M31.72,73.59c0-4.89,4-6.77,10.65-6.77a70,70,0,0,1,31.1,8V45.38a82.85,82.85,0,0,0-31.1-5.76C16.92,39.62,0,52.9,0,75.09c0,34.61,47.64,29.09,47.64,44,0,5.77-5,7.65-12,7.65-10.4,0-23.69-4.27-34.22-10v29.83A86.8,86.8,0,0,0,35.6,153.7c26.08,0,44-12.91,44-35.35C79.48,81,31.72,87.63,31.72,73.59Z"/></svg>