<?xml version="1.0" ?><svg height="48px" version="1.1" viewBox="0 0 48 48" width="48px" xmlns="http://www.w3.org/2000/svg" xmlns:xlink="http://www.w3.org/1999/xlink"><title/><desc/><g fill="none" fill-rule="evenodd" id="Page-1" stroke="none" stroke-width="1"><g id="Artboard-Copy" transform="translate(-347.000000, -369.000000)"><path d="M368.9199,395.002 L362.110021,395.002 C361.879194,395.002 361.655475,394.922146 361.476818,394.775986 C361.049358,394.426277 360.986327,393.796257 361.336036,393.368797 L374.77157,376.946096 C375.028907,376.631544 375.451018,376.504019 375.839473,376.623469 C376.367364,376.785795 376.663712,377.345326 376.501386,377.873217 L373.0799,389 L379.891387,389 C380.122264,389 380.346028,389.079888 380.524702,389.226105 C380.952112,389.575875 381.015052,390.205904 380.665282,390.633314 L367.22817,407.053133 C366.970805,407.367628 366.548712,407.495098 366.160291,407.375629 C365.632411,407.213265 365.336102,406.653713 365.498466,406.125834 L368.9199,395.002 Z" fill="#1d1d1f" id="flash"/><g id="slices" transform="translate(47.000000, 9.000000)"/></g></g></svg>